<?xml version="1.0" encoding="utf-8"?>
<!-- Generator: Adobe Illustrator 23.0.1, SVG Export Plug-In . SVG Version: 6.00 Build 0)  -->
<svg version="1.1" id="minimap" xmlns="http://www.w3.org/2000/svg" xmlns:xlink="http://www.w3.org/1999/xlink" x="0px" y="0px"
	 viewBox="0 0 200 210" style="enable-background:new 0 0 200 210;" xml:space="preserve">
<style type="text/css">
	.st0{fill:#111111;stroke:#00CC00;}
	.st1{opacity:0.5;fill:#00CC00;stroke:#00CC00;enable-background:new    ;}
	.st2{opacity:0.5;fill:#111111;stroke:#00CC00;enable-background:new    ;}
	.st3{fill:#00CC00;fill-opacity:0.5;stroke:#00CC00;}
	.st4{fill:#00CC00;stroke:#00CC00;}
</style>
<rect x="10" y="10" class="st0" width="180" height="180"/>
<rect id="bed-frame" x="129" y="109" class="st0" width="60" height="80"/>
<rect id="blanket" x="129" y="109" class="st1" width="60" height="55"/>
<g id="pillows">
	<g id="pillow-2">
		<rect x="159" y="170" class="st2" width="28" height="15"/>
		<rect x="159" y="170" class="st1" width="28" height="15"/>
	</g>
</g>
<rect x="189" y="50" class="st3" width="2" height="40"/>
<rect x="9" y="80" class="st4" width="2" height="40"/>
<rect x="20" y="10" class="st3" width="40" height="10"/>
<rect x="80" y="10" class="st3" width="40" height="10"/>
<rect x="147" y="10" class="st3" width="32" height="10"/>
<path class="st3" d="M71.2,189.1H57c0-5.5,6.4-10,14.2-10s14.2,4.5,14.2,10H71.2z"/>
<rect x="61" y="186" class="st3" width="20" height="2"/>
<rect x="107.8" y="170" class="st3" width="18" height="18"/>
</svg>
