<?xml version="1.0" encoding="utf-8"?>
<!-- Svg Vector Icons : http://www.onlinewebfonts.com/icon -->
<!DOCTYPE svg PUBLIC "-//W3C//DTD SVG 1.1//EN" "http://www.w3.org/Graphics/SVG/1.1/DTD/svg11.dtd">
<svg version="1.1" xmlns="http://www.w3.org/2000/svg" xmlns:xlink="http://www.w3.org/1999/xlink" x="0px" y="0px" viewBox="0 0 1000 1000" enable-background="new 0 0 1000 1000" xml:space="preserve">
<metadata> Svg Vector Icons : http://www.onlinewebfonts.com/icon </metadata>
<g><g transform="translate(0.000000,511.000000) scale(0.100000,-0.100000)"><path d="M5693,3138.1c-139-67.6-169-187.8-120.2-510.8c22.5-157.8,45.1-586,45.1-946.6c3.7-909-18.8-942.8-702.4-1093.1C4258.1,444.9,4032.8,351,3105-156.1c-638.6-349.4-886.5-428.2-1258.3-394.4c-758.8,63.8-1374.8-202.9-1645.2-717.5c-82.6-157.8-97.7-236.6-101.4-507.1c0-285.5,11.3-341.8,112.7-522.1c289.2-522.1,912.8-698.7,1810.5-510.9l341.8,71.4l616-108.9c856.4-154,1408.6-150.3,2186.1,11.3c683.6,146.5,871.4,146.5,1667.7,18.8c721.2-116.4,1476.2-139,1810.5-52.6c559.7,139,1002.9,473.3,1168.2,886.5c78.9,199.1,86.4,281.7,86.4,732.5c-3.8,420.7-26.3,619.8-139,1183.2c-240.4,1213.3-266.7,1434.9-270.5,2306.3v803.8l-97.6,71.4c-75.1,56.3-131.5,67.6-217.9,48.8c-210.3-45.1-240.4-142.7-259.2-841.4c-18.8-725,37.6-1258.3,236.6-2295.1c311.8-1611.4,255.4-1949.5-364.4-2235c-405.7-184-909-187.8-1964.5-18.8c-522.1,86.4-1081.8,101.4-1389.8,41.3c-101.4-22.6-349.3-75.1-544.7-116.5c-514.6-108.9-1126.9-101.4-1765.4,18.8c-563.4,105.2-927.8,116.5-1258.3,37.6c-728.7-176.6-1269.6,60.1-1202,525.9c33.8,217.9,150.2,379.4,349.3,473.3c154,75.1,259.2,90.1,796.3,112.7c762.5,30,788.8,37.6,1750.4,570.9c604.8,330.6,961.6,473.3,1491.2,586c465.8,101.4,578.5,150.2,777.5,326.8c326.8,293,398.1,619.8,360.6,1592.6c-33.8,882.7-60.1,1040.5-187.8,1153.2C5892.1,3190.7,5817,3202,5693,3138.1z"/><path d="M7725.1,384.8c-127.7-124-116.4-247.9,37.6-432c165.3-195.3,176.5-371.8,37.6-507.1c-75.1-78.9-127.7-93.9-315.5-93.9c-195.3,0-232.9-11.3-300.5-97.6c-105.2-131.5-97.6-259.2,15-371.9c78.9-82.6,123.9-93.9,356.8-93.9c401.9,0,649.8,139,811.3,458.3c184.1,360.6,93.9,863.9-195.3,1119.4C8010.6,508.8,7852.9,516.3,7725.1,384.8z"/></g></g>
</svg>