<svg xmlns="http://www.w3.org/2000/svg" viewBox="0 0 142.55 191.75" height="200" width="210">
<defs>
<style>.cls-1,.cls-3{fill:#0c0;}.cls-2{opacity:0;}.cls-3{stroke:#000;stroke-miterlimit:10;stroke-opacity:0;stroke-width:0.5px;}.cls-4{fill:#0a0;}</style>
</defs>
<title>Text-Adventure Hero Profile</title>
<g id="Neck">
<rect class="cls-1" x="64.96" y="35.45" width="13" height="7"/>
<g class="cls-2">
<path d="M106,52v6H94V52h12m.5-.5h-13v7h13v-7Z" transform="translate(-28.54 -16.05)"/>
</g>
</g>
<g id="Right_Arm" data-name="Right Arm">
<g id="Torso">
    <g id="Right_Shoulder" data-name="Right Shoulder">
        <path class="cls-1" d="M118.7,57.84h0A7.15,7.15,0,0,0,111,60.58l-4.12,5.82a7.06,7.06,0,0,0-1.3,4.66l.54,7.11a7.14,7.14,0,0,0,5.2,6.33h0A7.15,7.15,0,0,0,119,81.76l4.12-5.82a7.06,7.06,0,0,0,1.3-4.66l-.54-7.11A7.14,7.14,0,0,0,118.7,57.84Z" transform="translate(-28.54 -16.05)"/>
        <g class="cls-2">
            <path d="M116.79,57.68a7,7,0,0,1,7,6.49l.54,7.11a7.07,7.07,0,0,1-1.28,4.61l-4.13,5.81a7,7,0,0,1-12.73-3.53l-.54-7.11a7.07,7.07,0,0,1,1.28-4.61l4.13-5.81a7,7,0,0,1,5.72-3m0-.1a7.14,7.14,0,0,0-5.81,3l-4.12,5.82a7.06,7.06,0,0,0-1.3,4.66l.54,7.11a7.14,7.14,0,0,0,5.2,6.33h0a7.33,7.33,0,0,0,1.91.26,7.14,7.14,0,0,0,5.81-3l4.12-5.82a7.06,7.06,0,0,0,1.3-4.66l-.54-7.11a7.14,7.14,0,0,0-5.2-6.33h0a7.33,7.33,0,0,0-1.91-.26Z" transform="translate(-28.54 -16.05)"/>
        </g>
    </g>
    <g id="Right_Shoulder-2" data-name="Right Shoulder">
        <path class="cls-1" d="M80.93,57.84h0a7.15,7.15,0,0,1,7.72,2.74l4.13,5.82a7.11,7.11,0,0,1,1.29,4.66l-.54,7.11a7.14,7.14,0,0,1-5.2,6.33h0a7.13,7.13,0,0,1-7.71-2.74l-4.13-5.82a7.06,7.06,0,0,1-1.3-4.66l.55-7.11A7.12,7.12,0,0,1,80.93,57.84Z" transform="translate(-28.54 -16.05)"/>
    </g>
        <rect class="cls-1" x="51.46" y="39.95" width="40" height="55" rx="7.56"/>
    <g class="cls-2">
        <path d="M112.44,56.5a7.07,7.07,0,0,1,7.06,7.06v39.88a7.07,7.07,0,0,1-7.06,7.06H87.56a7.07,7.07,0,0,1-7.06-7.06V63.56a7.07,7.07,0,0,1,7.06-7.06h24.88m0-.5H87.56A7.57,7.57,0,0,0,80,63.56v39.88A7.57,7.57,0,0,0,87.56,111h24.88a7.57,7.57,0,0,0,7.56-7.56V63.56A7.57,7.57,0,0,0,112.44,56Z" transform="translate(-28.54 -16.05)"/>
    </g>
</g>
<g id="Right_Arm-2" data-name="Right Arm">
    <rect class="cls-1" x="131" y="50" width="13" height="67" rx="5.01" transform="translate(-47.31 105.64) rotate(-45)"/>
    <g class="cls-2">
        <path d="M118.41,57.79a4.49,4.49,0,0,1,3.19,1.32L161.89,99.4a4.51,4.51,0,0,1,0,6.38l-2.11,2.11a4.51,4.51,0,0,1-6.38,0L113.11,67.6a4.51,4.51,0,0,1,0-6.38l2.11-2.11a4.48,4.48,0,0,1,3.19-1.32m0-.5a5,5,0,0,0-3.54,1.47l-2.11,2.11a5,5,0,0,0,0,7.08l40.29,40.29a5,5,0,0,0,7.08,0l2.11-2.11a5,5,0,0,0,0-7.08L122,58.76a5,5,0,0,0-3.54-1.47Z" transform="translate(-28.54 -16.05)"/>
    </g>
</g>
<rect class="cls-1" x="156.24" y="99.63" width="13" height="18.23" rx="6.5" transform="translate(-57.77 130.88) rotate(-45)"/>
<g class="cls-2">
    <path d="M160.9,100.9a6,6,0,0,1,4.24,1.75l3.69,3.7a6,6,0,1,1-8.48,8.48l-3.7-3.69a6,6,0,0,1,4.25-10.24m0-.5a6.47,6.47,0,0,0-4.6,1.9h0a6.49,6.49,0,0,0,0,9.19l3.7,3.7a6.5,6.5,0,0,0,9.19-9.19l-3.7-3.7a6.47,6.47,0,0,0-4.59-1.9Z" transform="translate(-28.54 -16.05)"/>
    </g>
    <path class="cls-1" d="M117,65.5l11-.78c-.47-4.9-5.27-8.72-11-8.72-6,0-11,4.29-11,9.5s5,9.5,11,9.5h.57Z" transform="translate(-28.54 -16.05)"/>
</g>
<g id="Left_Arm" data-name="Left Arm">
<rect class="cls-1" x="28.63" y="77" width="67" height="13" rx="5.01" transform="translate(-69.39 52.34) rotate(-45)"/>
<g class="cls-2"><path d="M81.22,57.79a4.48,4.48,0,0,1,3.19,1.32l2.11,2.11a4.51,4.51,0,0,1,0,6.38L46.23,107.89a4.51,4.51,0,0,1-6.38,0l-2.11-2.11a4.51,4.51,0,0,1,0-6.38L78,59.11a4.51,4.51,0,0,1,3.19-1.32m0-.5a5,5,0,0,0-3.54,1.47L37.39,99.05a5,5,0,0,0,0,7.08l2.11,2.11a5,5,0,0,0,7.08,0L86.87,68a5,5,0,0,0,0-7.08l-2.1-2.11a5,5,0,0,0-3.55-1.47Z" transform="translate(-28.54 -16.05)"/>
</g>
<rect class="cls-1" x="27.77" y="102.24" width="18.23" height="13" rx="6.5" transform="translate(-94.63 41.89) rotate(-45)"/>
<g class="cls-2">
<path d="M38.73,100.9A6,6,0,0,1,43,111.14l-3.7,3.69a6,6,0,1,1-8.48-8.48l3.69-3.7a6,6,0,0,1,4.24-1.75m0-.5a6.47,6.47,0,0,0-4.59,1.9l-3.7,3.7a6.49,6.49,0,0,0,0,9.19h0a6.52,6.52,0,0,0,9.2,0l3.69-3.7a6.49,6.49,0,0,0,0-9.19h0a6.47,6.47,0,0,0-4.6-1.9Z" transform="translate(-28.54 -16.05)"/>
</g><path class="cls-1" d="M82.63,65.5l-11-.78c.47-4.9,5.27-8.72,11-8.72,6,0,11,4.29,11,9.5s-5,9.5-11,9.5h-.57Z" transform="translate(-28.54 -16.05)"/>
</g>
<g id="Right_Leg" data-name="Right Leg">
<rect class="cls-1" x="72.46" y="92.95" width="17" height="87" rx="4.45"/>
<ellipse class="cls-3" cx="112.65" cy="196.63" rx="7.75" ry="11.8" transform="translate(-121.59 85.5) rotate(-35.38)"/>
</g>
<g id="Left_Leg" data-name="Left Leg">
<rect class="cls-1" x="53.46" y="92.95" width="17" height="87" rx="4.45"/>
<ellipse class="cls-3" cx="88.4" cy="196.88" rx="11.74" ry="8.09" transform="translate(-151.85 138.9) rotate(-54.62)"/>
</g>
<g id="Crotch">
<path class="cls-1" d="M98.41,118.85,84,112.2a3.77,3.77,0,0,1,1.59-7.2h28.74a3.77,3.77,0,0,1,1.59,7.2l-14.37,6.65A3.76,3.76,0,0,1,98.41,118.85Z" transform="translate(-28.54 -16.05)"/>
</g><g id="Head">
<ellipse class="cls-1" cx="71.46" cy="21.95" rx="13.25" ry="15.5"/>
<g class="cls-2">
<path d="M100,23c7,0,12.75,6.73,12.75,15S107,53,100,53,87.25,46.27,87.25,38,93,23,100,23m0-.5c-7.32,0-13.25,6.94-13.25,15.5S92.68,53.5,100,53.5s13.25-6.94,13.25-15.5S107.32,22.5,100,22.5Z" transform="translate(-28.54 -16.05)"/>
</g>
<polygon class="cls-4" points="73.07 10.8 65.12 13.83 59.43 20.16 58.34 15.77 51.13 17.08 58.41 11.35 59.64 5.83 65.23 6.67 73.2 1.95 69.38 8.21 73.07 10.8"/>
<polygon class="cls-4" points="85.08 4.74 80.48 8.71 83.86 13.77 75.53 11.76 69.06 14.6 68.51 9.39 61.13 6.09 69.12 4.88 71.04 0 76.52 4.46 85.08 4.74"/>
<polygon class="cls-4" points="92.54 19.59 86.7 18.68 87.93 24.45 80.89 16.9 73.74 13.85 75.22 10.1 69.58 2.43 77.53 7.67 81.2 5.98 84.63 12.97 92.54 19.59"/>
</g>
</svg>