<svg id="character-profile" xmlns="http://www.w3.org/2000/svg" viewBox="0 0 152.11 179.95" width="200" height="200"><defs><style>.cls-1,.cls-3{fill:#0c0;}.cls-2{opacity:0;}.cls-3{stroke:#000;stroke-miterlimit:10;stroke-opacity:0;stroke-width:0.5px;}.cls-4{fill:#0a0;}</style></defs><title>Text-Adventure Hero Profile</title><g id="Neck"><rect class="cls-1" x="69.12" y="35.45" width="13" height="7"/><g class="cls-2"><path d="M106,52v6H94V52h12m.5-.5h-13v7h13v-7Z" transform="translate(-24.38 -16.05)"/></g></g><g id="Torso"><g id="Right_Shoulder" data-name="Right Shoulder"><path class="cls-1" d="M118.7,57.84h0A7.15,7.15,0,0,0,111,60.58l-4.12,5.82a7.06,7.06,0,0,0-1.3,4.66l.54,7.11a7.14,7.14,0,0,0,5.2,6.33h0A7.15,7.15,0,0,0,119,81.76l4.12-5.82a7.06,7.06,0,0,0,1.3-4.66l-.54-7.11A7.14,7.14,0,0,0,118.7,57.84Z" transform="translate(-24.38 -16.05)"/><g class="cls-2"><path d="M116.79,57.68a7,7,0,0,1,7,6.49l.54,7.11a7.07,7.07,0,0,1-1.28,4.61l-4.13,5.81a7,7,0,0,1-12.73-3.53l-.54-7.11a7.07,7.07,0,0,1,1.28-4.61l4.13-5.81a7,7,0,0,1,5.72-3m0-.1a7.14,7.14,0,0,0-5.81,3l-4.12,5.82a7.06,7.06,0,0,0-1.3,4.66l.54,7.11a7.14,7.14,0,0,0,5.2,6.33h0a7.33,7.33,0,0,0,1.91.26,7.14,7.14,0,0,0,5.81-3l4.12-5.82a7.06,7.06,0,0,0,1.3-4.66l-.54-7.11a7.14,7.14,0,0,0-5.2-6.33h0a7.33,7.33,0,0,0-1.91-.26Z" transform="translate(-24.38 -16.05)"/></g></g><g id="Right_Shoulder-2" data-name="Right Shoulder"><path class="cls-1" d="M80.93,57.84h0a7.15,7.15,0,0,1,7.72,2.74l4.13,5.82a7.11,7.11,0,0,1,1.29,4.66l-.54,7.11a7.14,7.14,0,0,1-5.2,6.33h0a7.13,7.13,0,0,1-7.71-2.74l-4.13-5.82a7.06,7.06,0,0,1-1.3-4.66l.55-7.11A7.12,7.12,0,0,1,80.93,57.84Z" transform="translate(-24.38 -16.05)"/></g><rect class="cls-1" x="55.62" y="39.95" width="40" height="55" rx="7.56"/><g class="cls-2"><path d="M112.44,56.5a7.07,7.07,0,0,1,7.06,7.06v39.88a7.07,7.07,0,0,1-7.06,7.06H87.56a7.07,7.07,0,0,1-7.06-7.06V63.56a7.07,7.07,0,0,1,7.06-7.06h24.88m0-.5H87.56A7.57,7.57,0,0,0,80,63.56v39.88A7.57,7.57,0,0,0,87.56,111h24.88a7.57,7.57,0,0,0,7.56-7.56V63.56A7.57,7.57,0,0,0,112.44,56Z" transform="translate(-24.38 -16.05)"/></g></g><g id="Right_Arm" data-name="Right Arm"><g id="Right_Arm-2" data-name="Right Arm"><rect class="cls-1" x="130.16" y="50.35" width="13" height="64.61" rx="5.01" transform="translate(-42.8 104.79) rotate(-45)"/><g class="cls-2"><path d="M118.41,57.79a4.49,4.49,0,0,1,3.19,1.32l38.6,38.6a4.51,4.51,0,0,1,0,6.38l-2.11,2.11a4.51,4.51,0,0,1-6.38,0l-38.6-38.6a4.51,4.51,0,0,1,0-6.38l2.11-2.11a4.48,4.48,0,0,1,3.19-1.32m0-.5a5,5,0,0,0-3.54,1.47l-2.11,2.11a5,5,0,0,0,0,7.08l38.6,38.6a5,5,0,0,0,7.09,0l2.1-2.1a5,5,0,0,0,0-7.09L122,58.76a5,5,0,0,0-3.54-1.47Z" transform="translate(-24.38 -16.05)"/></g></g><path class="cls-1" d="M117,65.5l11-.78c-.47-4.9-5.27-8.72-11-8.72-6,0-11,4.29-11,9.5s5,9.5,11,9.5h.57Z" transform="translate(-24.38 -16.05)"/><path class="cls-3" d="M166.41,121.3a1.75,1.75,0,0,0-.09-2.44l-5.09-5.35.35-.32L168,120a1.63,1.63,0,1,0,2.34-2.22L163.91,111l.35-.33,7.65,8a1.62,1.62,0,1,0,2.33-2.22l-7.65-8,.34-.33,6.43,6.77a1.62,1.62,0,1,0,2.34-2.22L166,102.38l.34-.33,3.54,3.73a1.63,1.63,0,1,0,2.34-2.22L167.78,99c-2.67-2.81-6.86-3.18-9.34-.82L154.39,102c-2.48,2.36-2.32,6.56.34,9.37l9.26,9.73A1.73,1.73,0,0,0,166.41,121.3Z" transform="translate(-24.38 -16.05)"/></g><g id="Left_Arm" data-name="Left Arm"><rect class="cls-1" x="31.5" y="75.81" width="63.64" height="13" rx="5.01" transform="translate(-64.04 52.83) rotate(-45)"/><g class="cls-2"><path d="M81.22,57.79a4.48,4.48,0,0,1,3.19,1.32l2.11,2.11a4.51,4.51,0,0,1,0,6.38L48.6,105.52a4.51,4.51,0,0,1-6.38,0l-2.1-2.11a4.51,4.51,0,0,1,0-6.38L78,59.11a4.51,4.51,0,0,1,3.19-1.32m0-.5a5,5,0,0,0-3.54,1.47L39.76,96.68a5,5,0,0,0,0,7.08l2.11,2.11a5,5,0,0,0,7.08,0L86.87,68a5,5,0,0,0,0-7.08l-2.1-2.11a5,5,0,0,0-3.55-1.47Z" transform="translate(-24.38 -16.05)"/></g><path class="cls-1" d="M82.63,65.5l-11-.78c.47-4.9,5.27-8.72,11-8.72,6,0,11,4.29,11,9.5s-5,9.5-11,9.5h-.57Z" transform="translate(-24.38 -16.05)"/><path class="cls-3" d="M36.88,120.08l9.26-9.73c2.67-2.81,2.82-7,.34-9.37l-4-3.85c-2.48-2.36-6.67-2-9.34.82l-4.39,4.61A1.63,1.63,0,1,0,31,104.78l3.54-3.73.35.33-9.75,10.26a1.62,1.62,0,1,0,2.33,2.22l6.43-6.77.34.33-7.65,8a1.73,1.73,0,0,0-.09,2.43,1.72,1.72,0,0,0,2.42-.21l7.66-8L37,110l-6.43,6.76A1.63,1.63,0,1,0,32.87,119l6.42-6.76.35.32-5.09,5.35a1.75,1.75,0,0,0-.09,2.44A1.73,1.73,0,0,0,36.88,120.08Z" transform="translate(-24.38 -16.05)"/></g><g id="Right_Leg" data-name="Right Leg"><rect class="cls-1" x="76.62" y="92.95" width="17" height="87" rx="4.45"/></g><g id="Left_Leg" data-name="Left Leg"><rect class="cls-1" x="57.62" y="92.95" width="17" height="87" rx="4.45"/></g><g id="Crotch"><path class="cls-1" d="M98.41,118.85,84,112.2a3.77,3.77,0,0,1,1.59-7.2h28.74a3.77,3.77,0,0,1,1.59,7.2l-14.37,6.65A3.76,3.76,0,0,1,98.41,118.85Z" transform="translate(-24.38 -16.05)"/></g><g id="Head"><g id="head-2" data-name="head"><ellipse class="cls-1" cx="75.62" cy="21.95" rx="13.25" ry="15.5"/><g class="cls-2"><path d="M100,23c7,0,12.75,6.73,12.75,15S107,53,100,53,87.25,46.27,87.25,38,93,23,100,23m0-.5c-7.32,0-13.25,6.94-13.25,15.5S92.68,53.5,100,53.5s13.25-6.94,13.25-15.5S107.32,22.5,100,22.5Z" transform="translate(-24.38 -16.05)"/></g></g><g id="hair"><polygon class="cls-4" points="77.23 10.8 69.28 13.83 63.59 20.16 62.5 15.77 55.29 17.08 62.57 11.35 63.8 5.83 69.39 6.67 77.36 1.95 73.54 8.21 77.23 10.8"/><polygon class="cls-4" points="89.24 4.74 84.65 8.71 88.02 13.77 79.69 11.76 73.22 14.6 72.67 9.39 65.3 6.09 73.28 4.88 75.2 0 80.68 4.46 89.24 4.74"/><polygon class="cls-4" points="96.7 19.59 90.87 18.68 92.09 24.45 85.06 16.9 77.9 13.85 79.39 10.1 73.74 2.43 81.69 7.67 85.36 5.98 88.79 12.97 96.7 19.59"/></g></g></svg>