<svg id="character-profile" xmlns="http://www.w3.org/2000/svg" viewBox="0 0 147.82 179.95"><defs><style>.cls-1,.cls-3{fill:#111;}.cls-2{fill:#0c0;}.cls-3{stroke:#0c0;stroke-miterlimit:10;stroke-width:0.5px;}.cls-4{fill:#0a0;}</style></defs><title>Text-Adventure Hero Profile</title><g id="Neck"><rect class="cls-1" x="67.46" y="35.7" width="12.5" height="6.5"/><path class="cls-2" d="M106,52v6H94V52h12m.5-.5h-13v7h13v-7Z" transform="translate(-26.29 -16.05)"/></g><g id="Left_Leg" data-name="Left Leg"><rect class="cls-1" x="56.21" y="93.45" width="16" height="86" rx="3.95"/><path class="cls-2" d="M94.55,110A3.46,3.46,0,0,1,98,113.45v78.1A3.46,3.46,0,0,1,94.55,195h-8.1A3.46,3.46,0,0,1,83,191.55v-78.1A3.46,3.46,0,0,1,86.45,110h8.1m0-1h-8.1A4.45,4.45,0,0,0,82,113.45v78.1A4.45,4.45,0,0,0,86.45,196h8.1A4.45,4.45,0,0,0,99,191.55v-78.1A4.45,4.45,0,0,0,94.55,109Z" transform="translate(-26.29 -16.05)"/></g><g id="Right_Leg" data-name="Right Leg"><rect class="cls-1" x="75.21" y="93.45" width="16" height="86" rx="3.95"/><path class="cls-2" d="M113.55,110a3.46,3.46,0,0,1,3.45,3.45v78.1a3.46,3.46,0,0,1-3.45,3.45h-8.1a3.46,3.46,0,0,1-3.45-3.45v-78.1a3.46,3.46,0,0,1,3.45-3.45h8.1m0-1h-8.1a4.45,4.45,0,0,0-4.45,4.45v78.1a4.45,4.45,0,0,0,4.45,4.45h8.1a4.45,4.45,0,0,0,4.45-4.45v-78.1a4.45,4.45,0,0,0-4.45-4.45Z" transform="translate(-26.29 -16.05)"/></g><g id="Torso"><g id="Crotch"><path class="cls-2" d="M98.41,118.85,84,112.2a3.77,3.77,0,0,1,1.59-7.2h28.74a3.77,3.77,0,0,1,1.59,7.2l-14.37,6.65A3.76,3.76,0,0,1,98.41,118.85Z" transform="translate(-26.29 -16.05)"/></g><path class="cls-2" d="M87.56,110.75a7.32,7.32,0,0,1-7.31-7.31V63.56c0-4.24,0-7.31,7.31-7.31h24.88c7.31,0,7.31,3.07,7.31,7.31v39.88a7.32,7.32,0,0,1-7.31,7.31Z" transform="translate(-26.29 -16.05)"/><path d="M112.44,56.5c7.06,0,7.06,2.81,7.06,7.06v39.88a7.07,7.07,0,0,1-7.06,7.06H87.56a7.07,7.07,0,0,1-7.06-7.06V63.56c0-4.25,0-7.06,7.06-7.06h24.88m0-.5H87.56C80,56,80,59.39,80,63.56v39.88A7.57,7.57,0,0,0,87.56,111h24.88a7.57,7.57,0,0,0,7.56-7.56V63.56c0-4.17,0-7.56-7.56-7.56Z" transform="translate(-26.29 -16.05)"/><g id="Left_Arm" data-name="Left Arm"><path class="cls-1" d="M45.14,107.42a4.72,4.72,0,0,1-3.36-1.4l-1.4-1.4a4.76,4.76,0,0,1,0-6.73L79,59.29a4.74,4.74,0,0,1,6.73,0l1.4,1.4a4.77,4.77,0,0,1,0,6.73L48.51,106A4.74,4.74,0,0,1,45.14,107.42Z" transform="translate(-26.29 -16.05)"/><path class="cls-2" d="M82.34,58.14a4.45,4.45,0,0,1,3.19,1.33l1.4,1.4a4.5,4.5,0,0,1,0,6.37l-38.6,38.61a4.51,4.51,0,0,1-6.38,0l-1.4-1.4a4.51,4.51,0,0,1,0-6.38l38.61-38.6a4.44,4.44,0,0,1,3.18-1.33m0-.5a5,5,0,0,0-3.54,1.47L40.2,97.71a5,5,0,0,0,0,7.09l1.4,1.4a5,5,0,0,0,7.08,0L87.29,67.6a5,5,0,0,0,0-7.09l-1.4-1.4a5,5,0,0,0-3.55-1.47Z" transform="translate(-26.29 -16.05)"/><path class="cls-3" d="M37.23,120.23,46,111.05c2.51-2.64,2.83-6.44.71-8.45l-3.47-3.3c-2.12-2-5.9-1.5-8.41,1.14l-4.13,4.35a1.41,1.41,0,1,0,2,1.9L36,103.18l.3.28-9.19,9.66a1.59,1.59,0,0,0-.19,2.2,1.59,1.59,0,0,0,2.19-.3l6.05-6.37.3.28-7.21,7.59a1.57,1.57,0,0,0-.19,2.19,1.59,1.59,0,0,0,2.19-.29l7.21-7.59.29.28-6.06,6.37a1.41,1.41,0,1,0,2,1.9L39.73,113l.29.28-4.79,5a1.41,1.41,0,1,0,2,1.9Z" transform="translate(-26.29 -16.05)"/></g><g id="Right_Arm" data-name="Right Arm"><path class="cls-1" d="M155.26,107.42a4.74,4.74,0,0,1-3.37-1.4l-38.6-38.6a4.74,4.74,0,0,1,0-6.73l1.4-1.4a4.74,4.74,0,0,1,6.73,0L160,97.89a4.76,4.76,0,0,1,0,6.73l-1.4,1.4A4.72,4.72,0,0,1,155.26,107.42Z" transform="translate(-26.29 -16.05)"/><path class="cls-2" d="M118.05,58.14a4.45,4.45,0,0,1,3.19,1.33l38.61,38.6a4.51,4.51,0,0,1,0,6.38l-1.4,1.4a4.51,4.51,0,0,1-6.38,0l-38.6-38.61a4.5,4.5,0,0,1,0-6.37l1.4-1.4a4.44,4.44,0,0,1,3.18-1.33m0-.5a5,5,0,0,0-3.54,1.47l-1.4,1.4a5,5,0,0,0,0,7.09l38.6,38.6a5,5,0,0,0,7.09,0l1.4-1.4a5,5,0,0,0,0-7.09l-38.6-38.6a5,5,0,0,0-3.55-1.47Z" transform="translate(-26.29 -16.05)"/><path class="cls-3" d="M165.36,120.52a1.57,1.57,0,0,0-.19-2.19l-4.79-5,.29-.28,6.06,6.37a1.41,1.41,0,1,0,2-1.9l-6.06-6.37.29-.28,7.21,7.59a1.59,1.59,0,0,0,2.19.29,1.57,1.57,0,0,0-.19-2.19L165,108.93l.3-.28,6.05,6.37a1.41,1.41,0,1,0,2-1.9l-9.19-9.66.3-.28,3.34,3.51a1.41,1.41,0,1,0,2-1.9l-4.13-4.35c-2.51-2.64-6.29-3.15-8.41-1.14l-3.47,3.3c-2.12,2-1.8,5.81.71,8.45l8.72,9.18A1.58,1.58,0,0,0,165.36,120.52Z" transform="translate(-26.29 -16.05)"/></g><path class="cls-3" d="M112.44,111H87.56A7.57,7.57,0,0,1,80,103.44V63.56C80,59.39,80,56,87.56,56h24.88C120,56,120,59.39,120,63.56v39.88A7.57,7.57,0,0,1,112.44,111Z" transform="translate(-26.29 -16.05)"/></g><g id="Head"><g id="head-2" data-name="head"><ellipse class="cls-1" cx="73.71" cy="21.95" rx="13" ry="15.25"/><path class="cls-2" d="M100,23c7,0,12.75,6.73,12.75,15S107,53,100,53,87.25,46.27,87.25,38,93,23,100,23m0-.5c-7.32,0-13.25,6.94-13.25,15.5S92.68,53.5,100,53.5s13.25-6.94,13.25-15.5S107.32,22.5,100,22.5Z" transform="translate(-26.29 -16.05)"/></g><g id="hair"><polygon class="cls-4" points="75.32 10.8 67.37 13.83 61.68 20.16 60.59 15.77 53.38 17.08 60.66 11.35 61.89 5.83 67.48 6.67 75.45 1.95 71.63 8.21 75.32 10.8"/><polygon class="cls-4" points="87.33 4.74 82.73 8.71 86.11 13.77 77.78 11.76 71.31 14.6 70.76 9.39 63.38 6.09 71.37 4.88 73.29 0 78.77 4.46 87.33 4.74"/><polygon class="cls-4" points="94.79 19.59 88.95 18.68 90.18 24.45 83.14 16.9 75.99 13.85 77.47 10.1 71.83 2.43 79.78 7.67 83.45 5.98 86.88 12.97 94.79 19.59"/></g><g id="Eyes"><path id="right-eye" class="cls-4" d="M105,37h2.5a2.5,2.5,0,0,1-5,0Z" transform="translate(-26.29 -16.05)"/><path id="left-eye" class="cls-4" d="M95,37h2.5a2.5,2.5,0,0,1-5,0Z" transform="translate(-26.29 -16.05)"/><rect class="cls-4" x="63.96" y="17.95" width="8.5" height="2"/><rect class="cls-4" x="74.96" y="17.95" width="8.5" height="2"/></g></g></svg>